<?xml version="1.0" standalone="no"?>
<!DOCTYPE svg PUBLIC "-//W3C//DTD SVG 20010904//EN"
 "http://www.w3.org/TR/2001/REC-SVG-20010904/DTD/svg10.dtd">
<svg version="1.0" xmlns="http://www.w3.org/2000/svg"
 width="700.000000pt" height="700.000000pt" viewBox="0 0 700.000000 700.000000"
 preserveAspectRatio="xMidYMid meet">
<metadata>
Created by potrace 1.14, written by Peter Selinger 2001-2017
</metadata>
<g transform="translate(0.000000,700.000000) scale(0.100000,-0.100000)"
fill="#000000" stroke="none">
<path d="M2648 6995 c-1 -2 -37 -6 -78 -9 -118 -10 -349 -51 -426 -76 -17 -6
-40 -12 -50 -14 -41 -9 -194 -60 -285 -96 -773 -308 -1380 -943 -1647 -1725
-35 -103 -85 -284 -101 -365 -6 -30 -13 -66 -16 -80 -26 -123 -38 -270 -40
-482 -1 -130 1 -259 5 -285 5 -26 11 -77 15 -113 6 -55 32 -203 49 -275 2 -11
9 -40 15 -65 56 -243 215 -611 366 -845 187 -291 414 -538 681 -740 432 -327
950 -527 1484 -571 156 -13 510 -6 561 10 8 3 40 7 71 10 147 14 454 97 648
174 154 62 355 165 485 252 39 25 76 49 82 53 14 9 11 11 148 -137 55 -60 114
-123 130 -141 17 -17 54 -58 84 -91 51 -56 232 -250 296 -318 17 -18 54 -59
84 -92 30 -32 85 -93 124 -134 39 -41 93 -100 121 -130 28 -31 78 -85 111
-120 33 -36 112 -121 175 -190 228 -248 291 -307 371 -345 157 -74 295 -71
472 9 151 70 272 192 352 359 14 28 25 58 25 67 0 9 5 21 12 28 7 7 9 12 6 12
-3 0 0 20 8 45 18 62 11 186 -14 253 -21 53 -70 125 -133 193 -19 20 -79 85
-134 144 -55 59 -116 125 -135 145 -48 51 -219 237 -249 269 -57 63 -142 155
-249 268 -63 68 -122 131 -131 142 -17 19 -186 202 -236 255 -16 18 -75 81
-130 141 -55 59 -109 118 -120 129 -11 12 -48 52 -82 89 l-62 67 64 122 c120
230 232 553 271 778 3 14 7 32 9 40 2 8 7 38 10 66 3 28 8 61 10 75 26 132 26
592 1 739 -3 14 -9 57 -15 95 -35 230 -113 491 -214 715 -124 276 -269 504
-461 725 -111 127 -302 306 -431 403 -186 140 -444 285 -660 370 -99 39 -298
103 -365 118 -19 4 -37 8 -40 9 -29 7 -122 26 -149 30 -19 3 -37 7 -40 9 -3 2
-37 7 -74 11 -37 3 -78 9 -90 12 -24 5 -483 13 -489 8z m400 -1269 c4 -2 29
-7 56 -10 408 -55 812 -315 1070 -690 93 -134 200 -380 231 -531 7 -33 25
-125 30 -155 11 -59 13 -331 4 -400 -76 -569 -401 -1030 -894 -1270 -455 -221
-949 -219 -1400 5 -164 82 -290 172 -419 301 -249 248 -411 574 -462 929 -16
114 -11 383 9 490 81 428 293 775 629 1028 42 31 81 57 86 57 6 0 12 3 14 8 9
21 230 129 343 167 90 30 237 63 335 75 64 7 354 5 368 -4z"/>
<path d="M2663 5514 c-405 -72 -733 -316 -935 -694 -74 -137 -141 -353 -139
-445 2 -94 68 -188 158 -224 70 -28 170 -10 236 42 48 37 68 78 101 200 155
584 768 827 1225 485 162 -122 266 -278 327 -490 32 -112 43 -134 86 -174 125
-118 325 -73 390 87 39 94 1 260 -108 484 -179 368 -521 636 -919 720 -102 22
-325 27 -422 9z"/>
</g>
</svg>
