<?xml version="1.0" standalone="no"?>
<!DOCTYPE svg PUBLIC "-//W3C//DTD SVG 20010904//EN"
 "http://www.w3.org/TR/2001/REC-SVG-20010904/DTD/svg10.dtd">
<svg version="1.0" xmlns="http://www.w3.org/2000/svg"
 width="1040.000000pt" height="1040.000000pt" viewBox="0 0 1040.000000 1040.000000"
 preserveAspectRatio="xMidYMid meet">
<metadata>
Created by potrace 1.14, written by Peter Selinger 2001-2017
</metadata>
<g transform="translate(0.000000,1040.000000) scale(0.100000,-0.100000)"
fill="#000000" stroke="none">
<path d="M196 8698 c-32 -10 -65 -26 -73 -34 -8 -8 -18 -14 -22 -14 -16 0 -69
-88 -84 -140 -15 -50 -16 -338 -14 -3330 1 -1801 5 -3282 8 -3290 3 -8 9 -24
13 -35 17 -44 32 -70 60 -97 33 -34 97 -68 126 -68 11 0 20 -4 20 -10 0 -11
5200 -9 5237 2 40 12 108 47 130 66 25 22 69 104 79 147 4 17 8 761 9 1655 2
1763 4 1697 -52 1786 -27 43 -94 94 -123 94 -9 0 -22 6 -28 12 -11 11 -122 16
-417 19 -11 0 -37 -1 -58 -3 -21 -2 -41 0 -44 4 -2 5 -9 5 -15 2 -6 -4 -36 -6
-67 -5 -31 1 -62 2 -68 2 -7 -1 -24 -1 -38 -1 -14 0 -33 0 -42 0 -10 0 -67 0
-128 0 -60 1 -117 0 -125 0 -8 0 -24 0 -35 0 -27 2 -34 1 -78 -2 -21 -2 -41 0
-44 4 -2 5 -9 5 -15 2 -12 -8 -112 -9 -125 -1 -4 2 -17 1 -28 -3 -11 -4 -32
-4 -47 1 -16 4 -28 5 -28 1 0 -4 -59 -7 -131 -6 -151 1 -231 -19 -293 -74 -20
-18 -34 -32 -30 -32 4 0 0 -8 -8 -17 -13 -16 -31 -58 -46 -113 -2 -8 -5 -393
-6 -854 -2 -824 -2 -839 -21 -843 -25 -4 -31 -4 -148 -1 -53 2 -97 0 -97 -4 0
-4 -13 -3 -29 2 -16 4 -31 6 -33 4 -5 -5 -53 -6 -106 -2 -23 2 -42 -1 -42 -5
0 -5 -4 -6 -9 -2 -17 10 -71 13 -77 4 -3 -5 -10 -6 -16 -3 -12 8 -252 9 -265
1 -4 -2 -17 -1 -28 3 -11 4 -32 4 -47 -1 -16 -4 -28 -5 -28 -1 0 6 -56 7 -70
2 -3 -1 -9 -1 -15 0 -28 6 -85 4 -85 -3 0 -5 -4 -6 -9 -2 -16 9 -71 13 -77 4
-2 -4 -12 -5 -21 -2 -9 4 -39 7 -67 7 l-51 1 -1 2442 c-1 1343 -4 2462 -8
2485 -17 113 -71 196 -148 231 -77 35 -131 37 -977 36 -803 -1 -838 -2 -895
-21z"/>
<path d="M8377 8700 c-27 -10 -63 -30 -81 -44 -49 -37 -104 -125 -111 -177
-11 -86 -8 -6541 4 -6585 14 -52 65 -128 107 -160 18 -14 56 -34 83 -45 49
-18 83 -19 924 -16 l872 2 47 22 c59 27 118 86 149 150 l24 48 3 3286 c2 3032
1 3289 -14 3334 -18 51 -30 69 -81 119 -51 49 -58 54 -114 70 -46 14 -158 16
-908 16 -813 -1 -858 -2 -904 -20z"/>
</g>
</svg>
