<?xml version="1.0" encoding="UTF-8"?><svg id="Layer_2" xmlns="http://www.w3.org/2000/svg" viewBox="0 0 57.481 56.904"><defs><style>.cls-1{fill:none;stroke:#2480c1;stroke-linecap:round;stroke-miterlimit:10;stroke-width:4px;}.cls-2{fill:#2480c1;stroke-width:0px;}</style></defs><g id="Layer_1-2"><path class="cls-2" d="m30.211,1.02C17.854-2.741,4.782,4.222,1.021,16.578c-3.764,12.366,3.21,25.431,15.567,29.193,7.089,2.158,14.409.788,20.078-3.114,2.702-1.854,5.03-4.283,6.767-7.186.981-1.613,1.772-3.373,2.348-5.266,3.762-12.357-3.213-25.422-15.57-29.184Zm-.69,33.99c-2.947,1.564-6.493,2.004-9.948.952-6.936-2.112-10.85-9.451-8.736-16.396,2.112-6.936,9.451-10.85,16.387-8.738s10.85,9.451,8.738,16.387c-.019.063-.041.135-.069.195-1.086,3.405-3.443,6.06-6.373,7.6Z"/><path class="cls-2" d="m56.541,49.026c.731.782,1.079,1.86.888,2.913-.184,1.013-.648,2.267-1.751,3.338-.85.825-1.797,1.268-2.664,1.496-1.498.395-3.09-.139-4.148-1.27-3.896-4.167-7.792-8.335-11.687-12.502l-7.271-7.782c2.982-1.567,5.382-4.27,6.487-7.736l7.672,8.204,12.475,13.339Z"/><path class="cls-1" d="m15.031,21.28c.749-3.873,3.789-6.807,7.377-7.263,4.262-.542,8.535,2.511,9.51,7.189"/></g></svg>