<?xml version="1.0" encoding="UTF-8" standalone="no"?>
<svg
   id="Layer_2"
   viewBox="0 0 57.481 56.904"
   version="1.1"
   sodipodi:docname="search-page-icon-dark.svg"
   inkscape:version="1.2.2 (b0a8486541, 2022-12-01)"
   xmlns:inkscape="http://www.inkscape.org/namespaces/inkscape"
   xmlns:sodipodi="http://sodipodi.sourceforge.net/DTD/sodipodi-0.dtd"
   xmlns="http://www.w3.org/2000/svg"
   xmlns:svg="http://www.w3.org/2000/svg">
  <sodipodi:namedview
     id="namedview14"
     pagecolor="#ffffff"
     bordercolor="#000000"
     borderopacity="0.25"
     inkscape:showpageshadow="2"
     inkscape:pageopacity="0.0"
     inkscape:pagecheckerboard="true"
     inkscape:deskcolor="#d1d1d1"
     showgrid="false"
     inkscape:zoom="18.047941"
     inkscape:cx="28.756744"
     inkscape:cy="28.424296"
     inkscape:window-width="2560"
     inkscape:window-height="1339"
     inkscape:window-x="0"
     inkscape:window-y="32"
     inkscape:window-maximized="1"
     inkscape:current-layer="Layer_2" />
  <defs
     id="defs4">
    <style
       id="style2">.cls-1{fill:none;stroke:#2480c1;stroke-linecap:round;stroke-miterlimit:10;stroke-width:4px;}.cls-2{fill:#2480c1;stroke-width:0px;}</style>
  </defs>
  <g
     id="Layer_1-2">
    <path
       class="cls-2"
       d="m30.211,1.02C17.854-2.741,4.782,4.222,1.021,16.578c-3.764,12.366,3.21,25.431,15.567,29.193,7.089,2.158,14.409.788,20.078-3.114,2.702-1.854,5.03-4.283,6.767-7.186.981-1.613,1.772-3.373,2.348-5.266,3.762-12.357-3.213-25.422-15.57-29.184Zm-.69,33.99c-2.947,1.564-6.493,2.004-9.948.952-6.936-2.112-10.85-9.451-8.736-16.396,2.112-6.936,9.451-10.85,16.387-8.738s10.85,9.451,8.738,16.387c-.019.063-.041.135-.069.195-1.086,3.405-3.443,6.06-6.373,7.6Z"
       id="path6" />
    <path
       class="cls-2"
       d="m56.541,49.026c.731.782,1.079,1.86.888,2.913-.184,1.013-.648,2.267-1.751,3.338-.85.825-1.797,1.268-2.664,1.496-1.498.395-3.09-.139-4.148-1.27-3.896-4.167-7.792-8.335-11.687-12.502l-7.271-7.782c2.982-1.567,5.382-4.27,6.487-7.736l7.672,8.204,12.475,13.339Z"
       id="path8" />
    <path
       class="cls-1"
       d="m15.031,21.28c.749-3.873,3.789-6.807,7.377-7.263,4.262-.542,8.535,2.511,9.51,7.189"
       id="path10" />
  </g>
  <path
     style="fill:#000000;stroke-width:0.055408"
     d="m 51.003049,56.734905 c -0.50507,-0.130757 -1.091921,-0.412224 -1.5221,-0.730033 -0.186129,-0.137512 -2.909525,-3.006192 -6.497513,-6.844138 -3.397391,-3.634072 -6.185538,-6.607402 -6.195882,-6.607402 -0.01034,0 -0.300559,0.183531 -0.644922,0.407848 -3.152773,2.053704 -6.650074,3.282088 -10.544143,3.7035 -0.861088,0.09319 -3.507257,0.09285 -4.377231,-5.65e-4 C 17.857143,46.302911 14.742409,45.320181 11.870025,43.713708 11.158324,43.315666 9.5774357,42.253688 8.9547779,41.755361 6.2154731,39.563032 4.1009673,36.973128 2.5540113,33.915527 -0.81484084,27.256898 -0.80283365,19.472943 2.5866079,12.784113 5.5376662,6.9604019 10.872767,2.6221026 17.249633,0.8607028 c 2.05201,-0.56680019 3.909453,-0.81155024 6.16024,-0.81171768 3.55747,-2.6466e-4 6.903329,0.76117302 10.111957,2.30123998 6.788156,3.2581572 11.654584,9.7091129 12.90862,17.1117159 0.33622,1.984715 0.424951,4.376715 0.229689,6.191955 -0.344148,3.199362 -1.296172,6.290682 -2.744707,8.912351 l -0.345393,0.625119 0.240172,0.25954 c 0.132094,0.142747 3.069901,3.285998 6.52846,6.985004 3.458558,3.699006 6.381252,6.853105 6.494877,7.00911 0.700784,0.962178 0.780987,2.221715 0.232486,3.65118 -0.691441,1.802005 -2.201019,3.156251 -4.061456,3.643542 -0.555537,0.145513 -1.428945,0.143402 -2.001529,-0.0048 z M 25.238337,36.429592 c 2.131783,-0.320129 4.136873,-1.130963 5.873246,-2.37507 0.808932,-0.579598 1.90432,-1.613432 2.528793,-2.386691 1.388012,-1.718716 2.408806,-4.032306 2.768659,-6.275062 0.121118,-0.754857 0.162665,-2.505698 0.07878,-3.319796 -0.261545,-2.538208 -1.209859,-4.867268 -2.817138,-6.918889 -0.457955,-0.584561 -1.685034,-1.777832 -2.308781,-2.245172 -1.746741,-1.308739 -3.644796,-2.123944 -5.818813,-2.49915 -0.843862,-0.145639 -2.587096,-0.200119 -3.47354,-0.108556 -3.0628,0.316367 -5.937098,1.707589 -8.096512,3.918887 -1.008531,1.032764 -1.690405,2.0002 -2.362608,3.352047 -0.927881,1.866033 -1.356018,3.726642 -1.34967,5.865437 0.0048,1.618264 0.176555,2.660747 0.689211,4.183303 0.660307,1.961067 1.703374,3.635508 3.17543,5.097534 2.205095,2.190072 4.923356,3.463799 8.093209,3.792328 0.674272,0.06988 2.305983,0.02603 3.019736,-0.08115 z"
     id="path189" />
  <path
     style="fill:#ffffff;stroke-width:0.055408"
     d="m 14.670355,23.215244 c -0.922347,-0.19107 -1.618032,-1.023586 -1.621117,-1.939968 -8.78e-4,-0.260779 0.281574,-1.401781 0.499364,-2.017247 1.633902,-4.617339 6.093118,-7.651037 10.636983,-7.23656 2.356239,0.214929 4.464835,1.157306 6.291711,2.8119 1.560554,1.413389 2.837108,3.630764 3.324563,5.774768 0.23077,1.015012 -0.13117,1.873105 -0.985464,2.336359 -0.329116,0.178467 -0.376353,0.188337 -0.901396,0.188337 -0.526007,0 -0.571839,-0.0096 -0.904592,-0.19004 -0.364454,-0.1976 -0.666169,-0.49865 -0.842565,-0.840708 -0.05662,-0.109796 -0.168651,-0.458867 -0.248956,-0.775712 -0.690939,-2.726105 -2.768822,-4.755776 -5.418362,-5.292641 -0.614972,-0.124609 -1.999999,-0.08146 -2.586666,0.08058 -1.807241,0.499174 -3.343762,1.765383 -4.224316,3.481156 -0.302599,0.589616 -0.496332,1.118718 -0.677026,1.849013 -0.163736,0.661759 -0.280099,0.900008 -0.593411,1.214991 -0.439766,0.442111 -1.172815,0.675084 -1.74875,0.555774 z"
     id="path191" />
  <path
     style="fill:#ffffff;stroke-width:0.055408"
     d="m 51.003049,56.709301 c -0.167609,-0.04536 -0.541613,-0.197756 -0.83112,-0.338664 -0.479642,-0.233451 -0.587988,-0.318303 -1.220341,-0.955722 -0.860754,-0.867655 -2.638544,-2.748261 -6.81438,-7.208478 -4.952693,-5.28998 -5.273429,-5.625644 -5.372102,-5.622121 -0.05054,0.0018 -0.464344,0.237364 -0.919572,0.523466 -2.928038,1.840218 -6.031449,2.948276 -9.72067,3.470718 -0.88488,0.125311 -4.369748,0.145407 -5.20835,0.03004 C 16.495262,46.000276 13.127175,44.694194 9.7114166,42.263405 4.8674544,38.81625 1.4136868,33.25578 0.39282341,27.260728 0.10301196,25.558801 -6.9756823e-4,23.208679 0.13975328,21.526002 0.36932222,18.775641 1.0861617,16.081352 2.2675312,13.528606 5.2049808,7.181257 10.996432,2.4271748 17.835143,0.7494757 19.534198,0.332657 20.457797,0.19902535 22.276301,0.10690324 c 3.999355,-0.20259996 7.916497,0.6226349 11.520707,2.42709816 6.136078,3.0720537 10.623021,8.6699096 12.247366,15.2796656 0.500951,2.03846 0.658299,3.401749 0.658695,5.707022 2.22e-4,1.399948 -0.01883,1.803978 -0.120885,2.56049 -0.244464,1.812236 -0.61859,3.407445 -1.1816,5.038149 -0.378118,1.095182 -0.724764,1.892977 -1.344943,3.095342 l -0.514552,0.997583 2.436365,2.603936 c 3.225289,3.44712 9.502045,10.186972 10.276687,11.034898 0.888456,0.972502 1.121186,1.493842 1.120438,2.509903 -5.54e-4,0.642192 -0.134026,1.238735 -0.432143,1.930225 -0.664785,1.541972 -1.943801,2.731531 -3.54051,3.29287 -0.442832,0.15568 -0.560618,0.172972 -1.290717,0.189501 -0.586594,0.01328 -0.885659,-0.0041 -1.10816,-0.06428 z M 24.650411,36.51294 c 2.299528,-0.190508 4.795785,-1.167646 6.736003,-2.63675 1.647296,-1.247308 2.866449,-2.736703 3.798687,-4.640715 0.706006,-1.441953 1.163339,-2.954208 1.298551,-4.293901 0.08449,-0.837134 0.07073,-2.646245 -0.02527,-3.321575 -0.339584,-2.388948 -1.240474,-4.514117 -2.717509,-6.410507 -0.475586,-0.610613 -1.827057,-1.923433 -2.463068,-2.392627 -1.705576,-1.258225 -3.591262,-2.058566 -5.734726,-2.43399 -0.788705,-0.138139 -3.102359,-0.169806 -3.906263,-0.05346 -4.621658,0.668856 -8.463744,3.567411 -10.310606,7.77855 -0.609567,1.38991 -0.918155,2.63096 -1.051264,4.227876 -0.187763,2.252605 0.194204,4.420836 1.160832,6.589446 1.172006,2.629373 3.491855,4.998404 6.183959,6.315064 2.173504,1.063022 4.492867,1.48284 7.030672,1.272592 z"
     id="path262" />
</svg>
